<svg xmlns="http://www.w3.org/2000/svg" width="1200" height="630" viewBox="0 0 1200 630" role="img" aria-label="The Intellectual Resistance — thinking done right.">
  <defs>
    <linearGradient id="bg" x1="0" y1="0" x2="1" y2="1">
      <stop offset="0" stop-color="#150f08"/>
      <stop offset="0.45" stop-color="#0d1117"/>
      <stop offset="0.78" stop-color="#0a1424"/>
      <stop offset="1" stop-color="#0d1117"/>
    </linearGradient>
    <linearGradient id="wire" x1="0" y1="0" x2="1" y2="0">
      <stop offset="0" stop-color="#3fb950"/><stop offset="1" stop-color="#d4a853"/>
    </linearGradient>
    <radialGradient id="glow" cx="0.78" cy="0" r="0.7">
      <stop offset="0" stop-color="#d4a853" stop-opacity="0.16"/>
      <stop offset="1" stop-color="#d4a853" stop-opacity="0"/>
    </radialGradient>
  </defs>
  <rect width="1200" height="630" fill="url(#bg)"/>
  <rect width="1200" height="630" fill="url(#glow)"/>

  <!-- eyebrow -->
  <g font-family="SFMono-Regular,Consolas,monospace" font-size="22" letter-spacing="6" fill="#d4a853">
    <rect x="90" y="118" width="40" height="2" fill="#d4a853"/>
    <text x="146" y="126">A BODY OF WORK · LOGIC, REASON, THINKING DONE RIGHT</text>
  </g>

  <!-- headline -->
  <g font-family="-apple-system,BlinkMacSystemFont,'SF Pro Display',system-ui,sans-serif" font-weight="700">
    <text x="88" y="248" font-size="104" fill="#e6edf3" letter-spacing="-2">The Intellectual</text>
    <text x="88" y="360" font-size="104" fill="#d4a853" letter-spacing="-2">Resistance</text>
  </g>

  <!-- subhead -->
  <text x="90" y="430" font-family="-apple-system,system-ui,sans-serif" font-size="33" fill="#9aa4ae">Resistance is what makes current usable. Thinking is the same.</text>

  <!-- resistor schematic -->
  <g transform="translate(90,500)">
    <line x1="0" y1="30" x2="330" y2="30" stroke="url(#wire)" stroke-width="4"/>
    <polyline points="330,30 356,-2 396,62 436,-2 476,62 516,-2 556,62 582,30"
      fill="none" stroke="#c8956a" stroke-width="5" stroke-linejoin="round"/>
    <line x1="582" y1="30" x2="912" y2="30" stroke="url(#wire)" stroke-width="4"/>
    <circle cx="0" cy="30" r="8" fill="#3fb950"/>
    <circle cx="912" cy="30" r="8" fill="#d4a853"/>
    <text x="456" y="-22" text-anchor="middle" font-family="SFMono-Regular,Consolas,monospace" font-size="22" fill="#c8956a">R = the human in the loop</text>
  </g>

  <!-- domain tag -->
  <text x="1110" y="585" text-anchor="end" font-family="SFMono-Regular,Consolas,monospace" font-size="24" fill="#828c96">intellectualresistance.com</text>
</svg>
